<?xml version="1.0" encoding="UTF-8" standalone="no"?>
<svg xmlns="http://www.w3.org/2000/svg" xmlns:xlink="http://www.w3.org/1999/xlink" width="10in" height="10in" viewBox="-50 -50 100 100" preserveAspectRatio="none" class="card" face="QS">
   <symbol id="S" viewBox="-600 -600 1200 1200" preserveAspectRatio="xMinYMid">
      <path d="M30 150C35 385 85 400 130 500L-130 500C-85 400 -35 385 -30 150A10 10 0 0 0 -50 150A210 210 0 1 1 -124 -51A10 10 0 0 0 -110 -65A230 230 0 1 1 110 -65A10 10 0 0 0 124 -51A210 210 0 1 1 50 150A10 10 0 0 0 30 150Z" fill="green"/>
   </symbol>

   <rect width="99" height="99" x="-49.5" y="-49.5" rx="12" ry="12" fill="white" stroke="green"/>
   <use xlink:href="#S" height="60" width="60" x="-8" y="-15"/>

   <style>
      .cardfont { font: bold 60px serif; fill: green;}
   </style>
   <text class="cardfont" x="-45" y="0" >10</text>
</svg>
