<?xml version="1.0" encoding="UTF-8" standalone="no"?>
<svg xmlns="http://www.w3.org/2000/svg" xmlns:xlink="http://www.w3.org/1999/xlink" width="10in" height="10in" viewBox="-50 -50 100 100" preserveAspectRatio="none" class="card" face="QS">
   <symbol id="S" viewBox="-600 -600 1200 1200" preserveAspectRatio="xMinYMid">
      <path d="M0 -500C100 -250 355 -100 355 185A150 150 0 0 1 55 185A10 10 0 0 0 35 185C35 385 85 400 130 500L-130 500C-85 400 -35 385 -35 185A10 10 0 0 0 -55 185A150 150 0 0 1 -355 185C-355 -100 -100 -250 0 -500Z" fill="black"/>
   </symbol>

   <rect width="99" height="99" x="-49.5" y="-49.5" rx="12" ry="12" fill="white" stroke="black"/>
   <use xlink:href="#S" height="65" width="65" x="-10" y="-20"/>

   <style>
      .cardfont { font: bold 70px serif; fill: black;}
   </style>
   <text class="cardfont" x="-45" y="10" >A</text>
</svg>
